<?xml version="1.0" encoding="UTF-8" standalone="no"?>
<svg width="138px" height="141px" viewBox="0 0 138 141" version="1.1" xmlns="http://www.w3.org/2000/svg" xmlns:xlink="http://www.w3.org/1999/xlink">
    <!-- Generator: Sketch 3.6.1 (26313) - http://www.bohemiancoding.com/sketch -->
    <title>Vector Smart Object - Migrate</title>
    <desc>Created with Sketch.</desc>
    <defs></defs>
    <g id="Page-1" stroke-width="1" fill-rule="evenodd">
        <g id="Vector-Smart-Object---Migrate" transform="translate(-2.000000, -1.000000)">
            <g id="g10" transform="translate(70.666667, 71.596003) scale(1, -1) translate(-70.666667, -71.596003) translate(0.666667, 0.596003)">
                <g id="g12" transform="translate(84.580931, 86.928664)">
                    <path d="M0,54.6666653 L34.2293325,34.4133325 L54.4839986,0.182666662 L46.0733322,46.2573322 L0,54.6666653 Z" id="path14"></path>
                </g>
                <g id="g16" transform="translate(89.082531, 33.547732)">
                    <path d="M0,47.9999988 L29.5333326,30.5239992 L47.0066655,0.987999975 L39.751999,40.7426656 L0,47.9999988 Z" id="path18"></path>
                </g>
                <g id="g20" transform="translate(82.094531, 0.669733)">
                    <path d="M23.9999994,23.9999994 L37.8066657,0.663999983 L32.0733325,32.0733325 L0.665333317,37.8066657 L23.9999994,23.9999994 Z" id="path22"></path>
                </g>
                <g id="g24" transform="translate(33.409332, 89.393598)">
                    <path d="M0,47.9999988 L29.5333326,30.5239992 L47.0066655,0.987999975 L39.751999,40.7426656 L0,47.9999988 Z" id="path26"></path>
                </g>
                <g id="g28" transform="translate(0.667333, 82.011731)">
                    <path d="M23.9999994,23.9999994 L37.8066657,0.663999983 L32.0733325,32.0733325 L0.665333317,37.8066657 L23.9999994,23.9999994 Z" id="path30"></path>
                </g>
            </g>
        </g>
    </g>
</svg>