<?xml version="1.0" encoding="UTF-8" standalone="no"?>
<svg width="384px" height="320px" viewBox="0 0 384 320" version="1.1" xmlns="http://www.w3.org/2000/svg" xmlns:xlink="http://www.w3.org/1999/xlink">
    <!-- Generator: Sketch 3.6.1 (26313) - http://www.bohemiancoding.com/sketch -->
    <title>navicon-round</title>
    <defs></defs>
    <g id="Page-1" stroke="none" stroke-width="1" fill-rule="evenodd">
        <g id="navicon-round">
            <g id="Group">
                <path d="M353.4,128 L30.6,128 C13.7,128 0,142.3 0,160 C0,177.7 13.7,192 30.6,192 L353.4,192 C370.3,192 384,177.7 384,160 C384,142.3 370.3,128 353.4,128 L353.4,128 Z" id="Shape"></path>
                <path d="M353.4,0 L30.6,0 C13.7,0 0,14.3 0,32 C0,49.7 13.7,64 30.6,64 L353.4,64 C370.3,64 384,49.7 384,32 C384,14.3 370.3,0 353.4,0 L353.4,0 Z" id="Shape"></path>
                <path d="M353.4,256 L30.6,256 C13.7,256 0,270.3 0,288 C0,305.7 13.7,320 30.6,320 L353.4,320 C370.3,320 384,305.7 384,288 C384,270.3 370.3,256 353.4,256 L353.4,256 Z" id="Shape"></path>
            </g>
        </g>
    </g>
</svg>