<?xml version="1.0" encoding="UTF-8" standalone="no"?>
<svg width="201px" height="178px" viewBox="0 0 201 178" version="1.1" xmlns="http://www.w3.org/2000/svg" xmlns:xlink="http://www.w3.org/1999/xlink">
    <!-- Generator: Sketch 3.6.1 (26313) - http://www.bohemiancoding.com/sketch -->
    <title>Vector Smart Object - offload</title>
    <desc>Created with Sketch.</desc>
    <defs>
        <path id="path-1" d="M0,177.455996 L200.447995,177.455996 L200.447995,0 L0,0 L0,177.455996 Z"></path>
    </defs>
    <g id="Page-1" stroke-width="1" fill-rule="evenodd">
        <g id="Vector-Smart-Object---offload" transform="translate(0.000000, -1.000000)">
            <g id="g10" transform="translate(100.500000, 89.456000) scale(1, -1) translate(-100.500000, -89.456000) translate(0.000000, 0.456000)">
                <g id="g12">
                    <g id="g14-Clipped">
                        <mask id="mask-2">
                            <use xlink:href="#path-1"></use>
                        </mask>
                        <g id="path16"></g>
                        <g id="g14" mask="url(#mask-2)">
                            <g transform="translate(-0.333333, -0.333333)">
                                <g id="g20" transform="translate(0.131467, 0.327200)">
                                    <path d="M185.666662,134.999997 C166.621329,163.686663 134.44133,178.102662 102.147997,177.439996 L102.142664,177.434662 C82.7679979,177.042662 63.3519984,171.134662 46.6466655,159.750663 C3.08133323,130.06533 -10.3546664,73.3333315 8.53733309,26.5759993 C11.8946663,25.4559993 15.2799996,24.5373327 18.9213328,24.4653327 C-1.79866665,68.5359983 10.0346664,124.294664 51.6866653,152.677329 C66.934665,163.067996 84.5986645,168.358662 102.287997,168.729329 L102.287997,168.729329 C131.767997,169.343996 161.173329,156.271996 178.459996,130.23333 C202.094662,94.6373309 194.459995,43.6613322 157.783996,20.1906661 C146.40933,12.9119997 133.15333,9.29333308 120.106664,9.30933308 C98.3626642,9.36133307 77.075998,19.3946662 65.1533317,39.0986657 C50.1359987,63.9173317 55.9853319,98.9813308 82.1559979,113.366664 C101.066664,123.76133 127.902663,118.802664 137.10933,98.2693309 C139.84533,92.1639977 140.251996,84.1719979 138.062663,77.5933314 C135.870663,71.0133315 131.647997,65.9893317 124.458664,64.534665 C122.030664,64.0453317 116.675997,65.686665 114.25733,67.9346649 C113.047997,69.0599982 112.634664,70.0973316 112.62533,70.6559982 C112.62533,71.2133315 112.778664,72.0439982 114.80133,73.6479981 C116.459997,75.1119981 116.70133,77.911998 115.319997,79.639998 C113.938664,81.3679979 111.153331,81.7466646 109.361331,80.447998 C105.931997,77.7293314 103.850664,74.0466648 103.918664,70.3839982 C103.990664,66.7199983 105.913331,63.7333317 108.271997,61.5413318 C112.990664,57.1546652 119.66933,54.8013319 126.090663,56.0999986 C136.51333,58.2106652 143.42533,65.9279983 146.358663,74.7359981 C149.291996,83.5453312 148.72533,93.629331 144.998663,101.939997 C133.46933,127.659997 100.921331,133.61733 77.939998,120.983997 C47.0613321,104.010664 40.2493323,63.4039984 57.6719985,34.6093324 C64.3573317,23.5586661 73.6039981,15.1573329 84.1639979,9.4826664 C89.5186644,6.8519998 95.9213309,3.86533321 101.827997,2.44133325 C114.12133,-0.524000012 120.426664,-0.788000005 135.483997,1.68533327 C141.74133,2.8719999 146.595996,4.27466653 156.277329,9.31066641 C156.290663,9.31733308 156.291996,9.31733308 156.305329,9.32533308 C158.359996,10.3879997 160.439996,11.5919997 162.406663,12.8506663 C203.411995,39.0906657 211.894661,95.4973309 185.666662,134.999997" id="path22"></path>
                                </g>
                                <g id="g24" transform="translate(8.225866, 23.966133)">
                                    <path d="M6.6666665,10.9999997 C6.6666665,10.9999997 26.250666,6.65066648 48.4479988,12.929333 L55.0106653,3.23466656 C55.0106653,3.23466656 17.7506662,-3.6666666 0.443999989,2.9359999 L6.6666665,10.9999997 Z" id="path26"></path>
                                </g>
                            </g>
                        </g>
                    </g>
                </g>
            </g>
        </g>
    </g>
</svg>