<?xml version="1.0" encoding="utf-8"?>
<!-- Generator: Adobe Illustrator 19.1.0, SVG Export Plug-In . SVG Version: 6.00 Build 0)  -->
<svg version="1.1" id="Layer_1" xmlns="http://www.w3.org/2000/svg" xmlns:xlink="http://www.w3.org/1999/xlink" x="0px" y="0px"
	 viewBox="0 0 44.5 53" enable-background="new 0 0 44.5 53" xml:space="preserve">
<g>
	<path fill-rule="evenodd" clip-rule="evenodd" d="M20.1,0c12.7-0.2,20.5,6.6,23.4,16.2c2.2,7.2,0.6,17.1-4.3,20.1
		c-5.7,3.4-13.3-2.6-11.9-8.9c1.3-5.9,10.3-9.4,9-16.2c-1.5-8-15.6-8.2-22-4.5c-3.8,2.2-7,5.7-8.7,10C0.9,28.6,9.8,40.1,18.3,42.7
		c2.6,0.8,7.1,0.8,9.7,0c4-1.2,8.2-4.3,11.7,0.3c2.7,3.7,0.9,9.1-3.2,9.9c-3.2,0.6-6.6-1.4-7.6-3.1c-0.9-1.7-0.2-4.3,1.3-4.8
		c0.4,0,0.8,0,1.2,0c2.2,1,1.9,4.8,3.1,6.7c5,0,6.2-7.1,2.6-9.6c-2.5-1.7-7.6,1.1-10.5,1.7c-5.8,1.2-12-0.6-15.6-2.7
		c-9.4-5.6-15.2-19.3-7.4-31c2.6-3.9,6.6-7.2,11.3-9C16.5,0.5,18.4,0.7,20.1,0z"/>
</g>
</svg>
