<svg width="412" height="412" viewBox="0 0 412 412" version="1.1" xmlns="http://www.w3.org/2000/svg"><title>Untitled 5</title><g id="Page-1" fill-rule="evenodd"><path d="M412 309h-68.666V68.667H103V0H68.667v68.667H0V103h68.667v240.334H309V412h34.334v-68.666H412V309zm-309 0V103h206v206H103zm34.333-145.917c0-14.216 11.534-25.75 25.75-25.75 14.217 0 25.75 11.534 25.75 25.75s-11.533 25.75-25.75 25.75c-14.216 0-25.75-11.534-25.75-25.75zm90.847 8.584l-31.1 65.817-25.413-21.86-34.334 59.043H279.68l-51.5-103z" id="crop-6"/></g></svg>