<svg width="412" height="330" viewBox="0 0 412 330" version="1.1" xmlns="http://www.w3.org/2000/svg"><title>Untitled</title><g id="Page-1" fill-rule="evenodd"><path d="M170.542 253.382c0 6.903-5.598 12.5-12.5 12.5-6.904 0-12.5-5.597-12.5-12.5v-56.3c0-6.903 5.596-12.5 12.5-12.5 6.902 0 12.5 5.597 12.5 12.5v56.3zm49 0c0 6.903-5.598 12.5-12.5 12.5-6.904 0-12.5-5.597-12.5-12.5v-56.3c0-6.903 5.596-12.5 12.5-12.5 6.902 0 12.5 5.597 12.5 12.5v56.3zm48.916 0c0 6.903-5.596 12.5-12.5 12.5-6.902 0-12.5-5.597-12.5-12.5v-56.3c0-6.903 5.598-12.5 12.5-12.5 6.904 0 12.5 5.597 12.5 12.5v56.3zM76.752 98.145l92.123-92.123c6.834-6.834 17.916-6.834 24.75 0 6.834 6.835 6.834 17.915 0 24.75L126.25 98.144H76.752zm208.998 0h49.498L243.124 6.022c-6.834-6.834-17.914-6.834-24.748 0-6.835 6.835-6.835 17.915 0 24.75l67.374 67.373zm55.74 64.667l-61.502 126.29H132.3l-61.753-126.29H341.49zm70.51-40H0v40h11.04c9.167 0 17.534 5.222 21.562 13.457l74.732 152.833H305l74.41-152.8c4.02-8.253 12.395-13.49 21.576-13.49H412v-40z" id="basket-4-icon"/></g></svg>