<svg version="1.1" id="Layer_1" xmlns="http://www.w3.org/2000/svg" x="0" y="0" width="100" height="100" viewBox="0 0 100 100" xml:space="preserve"><path d="M50.05.3c14.18.332 25.968 5.307 35.365 14.923S99.675 36.9 100 51.41c-.195 11.444-3.415 21.493-9.658 30.145-6.244 8.65-14.406 14.772-24.488 18.366-1.234.2-2.112.018-2.633-.548-.52-.565-.78-1.215-.78-1.946l.098-14.074c0-2.396-.342-4.377-1.023-5.94-.684-1.563-1.48-2.744-2.39-3.543 5.787-.4 10.976-2.313 15.56-5.74 4.586-3.428 7.01-9.934 7.27-19.517 0-2.795-.455-5.324-1.366-7.586-.91-2.263-2.18-4.293-3.806-6.09.39-.665.716-2.196.976-4.592.262-2.396-.23-5.39-1.463-8.983 0-.2-1.105-.15-3.316.15-2.21.298-5.69 2.012-10.438 5.14-4.032-1.13-8.18-1.697-12.438-1.697-4.26 0-8.44.566-12.537 1.697-4.748-3.128-8.228-4.84-10.44-5.14-2.21-.3-3.316-.35-3.316-.15-1.234 3.593-1.722 6.588-1.462 8.983.26 2.396.585 3.927.976 4.592-1.626 1.73-2.894 3.743-3.805 6.04-.912 2.295-1.367 4.84-1.367 7.636.26 9.518 2.667 16.006 7.22 19.466 4.552 3.46 9.723 5.39 15.51 5.79-.714.598-1.365 1.463-1.95 2.595s-1.008 2.528-1.268 4.192c-1.56.865-3.772 1.28-6.634 1.248-2.86-.033-5.495-1.88-7.9-5.54 0-.2-.65-1.032-1.952-2.496-1.3-1.465-3.187-2.397-5.66-2.796-.324-.066-.975.05-1.95.35-.976.3-.456 1.214 1.56 2.745.066-.067.7.448 1.903 1.546 1.204 1.1 2.424 3.078 3.66 5.94-.195.465.862 1.862 3.17 4.19 2.31 2.33 6.846 2.93 13.61 1.797l.098 9.483c0 .73-.26 1.38-.78 1.946-.52.564-1.4.748-2.635.55C24.07 96.026 15.91 89.904 9.665 81.253 3.415 72.604.195 62.556 0 51.11c.325-14.508 5.187-26.57 14.585-36.187C23.985 5.308 35.772.333 49.95 0l.1.3z"/></svg>