<svg width="1024" height="1024" viewBox="0 0 1024 1024" version="1.1" xmlns="http://www.w3.org/2000/svg"><title>star</title><g id="Page-1" stroke="none" stroke-width="1" fill-rule="evenodd"><g id="icon-earth"><path d="M512 0C229.23 0 0 229.23 0 512s229.23 512 512 512 512-229.23 512-512S794.77 0 512 0zm0 960.002c-62.958 0-122.872-13.012-177.23-36.452l233.148-262.29C573.124 655.402 576 647.838 576 640v-96c0-17.674-14.326-32-32-32-112.99 0-232.204-117.462-233.374-118.626-6-6.002-14.14-9.374-22.626-9.374H160c-17.672 0-32 14.328-32 32v192c0 12.122 6.848 23.202 17.69 28.622L256 691.778v187.886C139.948 798.708 64 664.232 64 512c0-68.714 15.49-133.806 43.138-192H224c8.488 0 16.626-3.372 22.628-9.372l128-128c6-6.002 9.372-14.14 9.372-22.628V82.588C424.562 70.514 467.518 64 512 64c70.406 0 137.004 16.26 196.282 45.2-4.144 3.502-8.176 7.164-12.046 11.036C659.97 156.5 640 204.714 640 256c0 51.286 19.97 99.5 56.236 135.764 36.434 36.432 85.218 56.264 135.634 56.26 3.166 0 6.342-.08 9.518-.236 13.814 51.802 38.752 186.656-8.404 372.334-.444 1.744-.696 3.488-.842 5.224-81.324 83.08-194.7 134.656-320.142 134.656z" id="Shape"/></g></g></svg>