<svg version="1.1" xmlns="http://www.w3.org/2000/svg" width="32" height="32" viewBox="0 0 32 32"><path d="M17.47 2H9.1C5.344 2 1.81 4.844 1.81 8.138c0 3.366 2.56 6.083 6.38 6.083.265 0 .523-.004.775-.023-.248.475-.425 1.01-.425 1.564 0 .937.503 1.695 1.14 2.314-.48 0-.945.014-1.452.014-4.65 0-8.228 2.96-8.228 6.032 0 3.024 3.923 4.916 8.573 4.916 5.3 0 8.228-3.008 8.228-6.032 0-2.425-.714-3.877-2.927-5.442-.757-.536-2.204-1.84-2.204-2.604 0-.897.255-1.34 1.606-2.395C14.66 11.48 15.64 9.96 15.64 8.19c0-2.105-.937-4.158-2.698-4.836h2.655L17.47 2zm-2.924 20.483c.066.28.103.57.103.863 0 2.444-1.576 4.353-6.094 4.353-3.214 0-5.535-2.036-5.535-4.48 0-2.394 2.88-4.388 6.094-4.353.75.008 1.45.13 2.083.334 1.745 1.214 2.996 1.9 3.35 3.282zM9.4 13.368c-2.156-.065-4.206-2.413-4.58-5.246s1.075-5 3.232-4.937c2.157.065 4.207 2.338 4.58 5.17s-1.075 5.078-3.23 5.013zM26 8V2h-2v6h-6v2h6v6h2v-6h6V8z"/></svg>