<svg version="1.1" xmlns="http://www.w3.org/2000/svg" width="32" height="32" viewBox="0 0 32 32"><path d="M26.354.5H5.647C2.817.5.5 2.816.5 5.647v20.707c0 2.83 2.316 5.147 5.147 5.147h20.707c2.83 0 5.147-2.315 5.147-5.146V5.647C31.5 2.817 29.186.5 26.355.5zm-15.93 13.563h11.153c.21.607.326 1.26.326 1.938 0 3.256-2.65 5.905-5.904 5.905s-5.905-2.65-5.905-5.904c0-.677.115-1.33.327-1.937zm17.2 0v11.624c0 1.066-.87 1.938-1.937 1.938H6.312c-1.066 0-1.938-.872-1.938-1.938V14.062h3.03c-.14.624-.215 1.272-.215 1.938 0 4.857 3.95 8.81 8.81 8.81s8.81-3.952 8.81-8.81c0-.666-.076-1.314-.216-1.938l3.03.002zm0-6.782c0 .534-.435.97-.968.97h-1.938c-.533 0-.97-.436-.97-.97V5.344c0-.533.437-.97.97-.97h1.938c.533 0 .97.437.97.97V7.28z"/></svg>