<svg width="14" height="10" viewBox="0 0 14 10" version="1.1" xmlns="http://www.w3.org/2000/svg"><title>_</title><path d="M6.5.26H3.26L1.1 3.86C.056 5.622.02 6.09.02 6.846c.007.844.356 1.65.966 2.234.61.585 1.43.897 2.274.867.836.026 1.648-.283 2.256-.857.608-.574.962-1.367.984-2.203-.006-1.184-.755-2.236-1.872-2.628L6.5.26zm7.45 0h-3.24l-2.16 3.6C7.508 5.622 7.47 6.09 7.47 6.846 7.553 8.57 8.97 9.93 10.694 9.94c1.726.01 3.157-1.334 3.257-3.057-.006-1.184-.755-2.236-1.872-2.628L13.95.26z" id="Page-1" stroke="none" stroke-width="1" fill-rule="evenodd"/></svg>