<svg width="329" height="397" viewBox="0 0 329 397" version="1.1" xmlns="http://www.w3.org/2000/svg"><title>logo</title><g id="Page-1" stroke="none" stroke-width="1" fill-rule="evenodd"><path d="M328.265 130.397c-.328-4.423-.95-8.81-1.646-13.174-.798-4.986-1.933-9.9-3.26-14.77-30.41 8.126-59.81 2.486-76.763-17.763-16.162-19.304-17.275-47.402-5.767-74.666-.223-.076-.442-.158-.664-.233-7.885-2.62-15.98-4.447-24.137-5.936C203.827 1.63 191.487.657 179.1.362c-5.413-.13-10.827-.01-16.245.233-8.177.368-16.335 1-24.386 2.374-12.187 2.08-23.867 5.857-35.004 11.328-9.79 4.81-19.06 10.4-27.564 17.24-7.47 6.015-13.984 12.91-19.318 20.904-2.815 4.218-5.175 8.676-7.145 13.34-2.733 6.472-5.18 13.053-7.24 19.773-2.78 9.06-5.59 18.112-8.31 27.19-1.605 5.358-2.642 10.83-3 16.43-.343 5.322 1.587 10.204 2.885 15.182 1.265 4.844 1.556 9.44-1.4 13.746-1.628 2.372-3.408 4.637-5.112 6.956-4.725 6.425-9.48 12.834-13.506 19.735-2.562 4.39-5.588 8.455-8.7 12.437-3.51 4.492-5.867 9.208-4.798 15.092.06.327-.006.637.19.98 2.085 3.618 4.983 6.413 8.538 8.555 3.253 1.96 6.9 2.84 10.51 3.822 3.162.86 4.162 2.197 4.06 5.48-.077 2.447-.62 4.79-1.863 6.935-3.294 5.68.112 13.246 5.16 15.165 1.035.394 2.3.58 3.14 1.536-4.74 3.872-5.23 9.458-1.25 13.94 1.49 1.678 2.614 3.597 3.854 5.434.993 1.475 1.28 3.175.825 4.97-1.114 4.404-2.178 8.808-2.47 13.38-.27 4.24-.147 8.422 1.227 12.46 2.975 8.745 9.945 13.284 18.03 16.255 3.078 1.132 6.52 1.448 9.87 1.816 7.678.842 15.426.698 23.08 1.68 6.74.865 13.63 1.06 19.75 4.792 2.887 1.763 5.203 3.9 7 6.704 2.092 3.27 2.412 6.925 2.188 10.63-.357 5.866.61 11.608 1.642 17.308 1.63 9.006 0 0 4.242 27.11 88.795 12.645 103.63 4.11 174.935-23.418-7.34-16.74-3.553-6.817-5.508-12.595-2.696-7.968-4.588-16.146-5.948-24.46-1.236-7.555-2.35-15.12-2.693-22.766-.49-10.862.382-21.608 2.636-32.28 2.074-9.82 4.748-19.437 8.42-28.764 2.896-7.36 6.09-14.577 10.314-21.322 1.254-2 2.15-4.282 3.356-6.35 5.662-9.707 11.46-19.34 15.734-29.776 2.486-6.072 4.545-12.277 6.055-18.673 2.445-10.367 3.64-20.848 3.318-31.504-.09-2.99-.117-5.98-.338-8.973" id="logo"/></g></svg>