<svg width="201" height="178" viewBox="0 0 201 178" version="1.1" xmlns="http://www.w3.org/2000/svg" xmlns:xlink="http://www.w3.org/1999/xlink"><title>Vector Smart Object - offload</title><defs><path id="path-1" d="M0 177.456h200.448V0H0v177.456z"/></defs><g id="Page-1" stroke-width="1" fill-rule="evenodd"><g id="Vector-Smart-Object---offload"><g id="g10"><g id="g12"><g id="g14-Clipped" transform="matrix(1 0 0 -1 0 177.456)"><mask id="mask-2"><use xlink:href="#path-1"/></mask><g id="g14" mask="url(#mask-2)"><g id="g20"><path d="M185.465 134.994c-19.046 28.687-51.226 43.103-83.52 42.44l-.004-.005c-19.374-.393-38.79-6.3-55.495-17.685C2.88 130.06-10.557 73.327 8.335 26.57c3.358-1.12 6.743-2.04 10.384-2.11C-2 68.53 9.832 124.29 51.484 152.67c15.248 10.392 32.912 15.683 50.6 16.053 29.48.615 58.886-12.457 76.173-38.496 23.635-35.596 16-86.572-20.676-110.042-11.375-7.28-24.63-10.898-37.677-10.882-21.744.052-43.03 10.086-54.954 29.79-15.016 24.818-9.167 59.882 17.004 74.268 18.91 10.395 45.747 5.437 54.953-15.097 2.736-6.105 3.143-14.097.954-20.676-2.19-6.58-6.414-11.604-13.603-13.058-2.428-.49-7.783 1.15-10.202 3.4-1.21 1.124-1.622 2.16-1.632 2.72 0 .557.154 1.388 2.176 2.992 1.658 1.464 1.9 4.264.518 5.992-1.38 1.728-4.167 2.107-5.96.808-3.428-2.72-5.51-6.4-5.44-10.064.07-3.664 1.993-6.65 4.352-8.843 4.72-4.386 11.397-6.74 17.82-5.44 10.42 2.11 17.333 9.827 20.267 18.635 2.933 8.81 2.366 18.893-1.36 27.204-11.53 25.72-44.078 31.677-67.06 19.044-30.878-16.973-37.69-57.58-20.267-86.375 6.685-11.05 15.932-19.452 26.492-25.126 5.355-2.63 11.757-5.618 17.664-7.042 12.293-2.965 18.6-3.23 33.656-.756 6.257 1.186 11.112 2.59 20.793 7.625.014.006.015.006.028.014 2.055 1.062 4.135 2.266 6.102 3.525 41.005 26.24 49.488 82.646 23.26 122.15" id="path22"/></g><g id="g24"><path d="M14.56 34.633s19.583-4.35 41.78 1.93l6.563-9.696s-37.26-6.9-54.566-.298l6.222 8.063z" id="path26"/></g></g></g></g></g></g></g></svg>