<svg version="1.1" xmlns="http://www.w3.org/2000/svg" width="32" height="32" viewBox="0 0 32 32"><symbol id="icon-pinterest"><title>pinterest</title><path class="path1" d="M441.19 677.222C414.26 818.227 381.44 953.395 284.108 1024c-30.003-213.094 44.083-373.094 78.54-542.976-58.725-98.816 7.067-297.574 130.817-248.576 152.32 60.21-131.89 367.206 58.88 405.606 199.22 39.987 280.525-345.6 156.98-470.99-178.433-181.145-519.476-4.25-477.492 255.08 10.19 63.385 75.674 82.585 26.163 170.085C143.77 566.935 109.67 476.823 114.073 356.71 121.14 160.1 290.663 22.526 460.748 3.43c215.09-24.116 416.973 79 444.877 281.292 31.386 228.403-97.075 475.802-327.117 457.984-62.362-4.864-88.474-35.79-137.318-65.485z"/></symbol></svg>