<svg version="1.1" id="Layer_1" xmlns="http://www.w3.org/2000/svg" x="0" y="0" viewBox="0 0 452.6 441.2" xml:space="preserve"><path id="puzzle-1" d="M42.6 309c16.8 0 22.5-9 29.3-15.8 14-14 31.1-8 31.1 14.5V412h104.3c22.6 0 28.6-17.2 14.5-31.1-6.8-6.9-15.8-12.6-15.8-29.4 0-18.7 19-42.5 51.5-42.5s51.5 23.9 51.5 42.5c0 16.8-9 22.5-15.8 29.3-14 14-8 31.1 14.5 31.1H412V307.7c0-22.6-17.2-28.6-31.1-14.5-6.9 6.8-12.6 15.8-29.4 15.8-18.7 0-42.5-19-42.5-51.5s23.9-51.5 42.5-51.5c16.8 0 22.5 9 29.3 15.8 14 14 31.1 8 31.1-14.5V103H307.7c-22.6 0-28.6-17.2-14.5-31.1C300 65 309 59.3 309 42.6 309 23.9 290 0 257.5 0S206 23.9 206 42.6c0 16.8 9 22.5 15.8 29.3 14 14 8 31.1-14.5 31.1H103v104.3c0 22.6-17.2 28.6-31.1 14.5C65 215 59.3 206 42.6 206 23.9 206 0 225 0 257.5S23.9 309 42.6 309z"/></svg>