<svg width="14" height="10" viewBox="0 0 14 10" version="1.1" xmlns="http://www.w3.org/2000/svg"><title>_</title><path d="M7.45 9.69h3.24l2.16-3.6c1.045-1.764 1.08-2.232 1.08-2.988-.006-.844-.355-1.65-.965-2.234-.61-.584-1.43-.896-2.274-.866-.835-.026-1.647.283-2.255.857-.608.573-.962 1.366-.984 2.202.007 1.184.756 2.236 1.873 2.628l-1.872 4zM0 9.69h3.24l2.16-3.6c1.044-1.764 1.08-2.232 1.08-2.988C6.4 1.378 4.983.02 3.258.01 1.532 0 .1 1.343 0 3.066.008 4.25.757 5.302 1.874 5.694L0 9.69z" id="Page-1" stroke="none" stroke-width="1" fill-rule="evenodd"/></svg>