<svg width="412" height="302" viewBox="0 0 412 302" version="1.1" xmlns="http://www.w3.org/2000/svg"><title>Untitled</title><g id="Page-1" stroke="none" stroke-width="1"><path d="M17.85 78.61l-17.68-40h289.743l-12.576 40H17.85zm14.42 34.667l17.462 39.498h205.084l12.42-39.498H32.27zM339.86.11l-59.18 188.165H65.23l17.628 40h227.068L369.104 40.11h29.98l12.746-40h-71.972zm-99.933 248c-14.852 0-26.89 12.038-26.89 26.89s12.038 26.89 26.89 26.89 26.89-12.038 26.89-26.89-12.04-26.89-26.89-26.89zm-88.883 0c-14.852 0-26.89 12.038-26.89 26.89s12.038 26.89 26.89 26.89 26.89-12.038 26.89-26.89-12.038-26.89-26.89-26.89z" id="shopping-cart-5-icon"/></g></svg>