<svg version="1.1" id="Layer_1" xmlns="http://www.w3.org/2000/svg" x="0" y="0" viewBox="0 0 44.5 53" xml:space="preserve"><path fill-rule="evenodd" clip-rule="evenodd" d="M20.1 0c12.7-.2 20.5 6.6 23.4 16.2 2.2 7.2.6 17.1-4.3 20.1-5.7 3.4-13.3-2.6-11.9-8.9 1.3-5.9 10.3-9.4 9-16.2-1.5-8-15.6-8.2-22-4.5-3.8 2.2-7 5.7-8.7 10-4.7 11.9 4.2 23.4 12.7 26 2.6.8 7.1.8 9.7 0 4-1.2 8.2-4.3 11.7.3 2.7 3.7.9 9.1-3.2 9.9-3.2.6-6.6-1.4-7.6-3.1-.9-1.7-.2-4.3 1.3-4.8h1.2c2.2 1 1.9 4.8 3.1 6.7 5 0 6.2-7.1 2.6-9.6-2.5-1.7-7.6 1.1-10.5 1.7-5.8 1.2-12-.6-15.6-2.7-9.4-5.6-15.2-19.3-7.4-31 2.6-3.9 6.6-7.2 11.3-9C16.5.5 18.4.7 20.1 0z"/></svg>