<svg version="1.1" xmlns="http://www.w3.org/2000/svg" width="32" height="32" viewBox="0 0 32 32"><path d="M9.376.5L7.282 4.655 5.188.5H2.516L6.29 7.08l.023-.014v5.06H8.25v-5.06l.023.013L12.048.5zM15.03 4.375c.526 0 .97.444.97.97v3.874c0 .524-.444.968-.97.968s-.968-.444-.968-.97V5.345c0-.525.444-.97.97-.97zm0-1.937c-1.597 0-2.905 1.308-2.905 2.906V9.22c0 1.597 1.308 2.905 2.906 2.905s2.907-1.308 2.907-2.906V5.343c0-1.598-1.308-2.906-2.906-2.906zM23.75 2.438v7.628c-.846.705-1.938 1.13-1.938-1.38V2.437h-1.938v6.64h.003c.03 1.6.367 4.485 3.872 2.14v.908h1.937V2.438H23.75zM26.656 21.813c-.534 0-.97.435-.97.97v.968h1.94v-.968c0-.534-.436-.97-.97-.97zM17.938 22.78v5.087c.656.656 1.938.727 1.938-.242v-4.54s-.97-1.273-1.938-.304z"/><path d="M31.34 18.105c-.083-1.116-.484-2.027-1.203-2.732s-1.637-1.09-2.757-1.153c-2.113-.106-6.946-.158-11.193-.158s-9.424.052-11.537.158c-1.12.063-2.038.448-2.757 1.153S.773 16.99.69 18.105C.56 20.38.5 21.203.5 22.34s.062 2.842.19 5.117c.083 1.116.485 2.027 1.203 2.732S3.53 31.28 4.65 31.34c2.113.106 7.29.158 11.537.158s9.08-.052 11.193-.158c1.12-.063 2.038-.448 2.757-1.153s1.12-1.617 1.204-2.733c.107-1.895.16-3.6.16-5.117s-.053-2.34-.16-4.235zM6.314 29.563H4.375v-9.688H2.437v-1.938H8.25v1.938H6.312v9.688zm7.75 0h-1.938v-.907c-3.683 2.067-3.842.067-3.872-1.535H8.25v-5.307h1.938v5.338c0 1.17 1.092 1.058 1.938.354v-5.69h1.938v7.75zm7.75-1.966c0 2.025-2.074 2.616-3.875 1.04v.925H16V17.937h1.938v3.148c1.938-1.938 3.875-1.21 3.875.727v5.784zm7.75-3.847v.97h-3.875v1.937c0 .534.435.97.97.97s.968-.436.968-.97v-.97h1.938v.97c0 1.602-1.304 2.906-2.906 2.906s-2.906-1.304-2.906-2.906v-3.875c0-1.602 1.304-2.906 2.906-2.906s2.906 1.304 2.906 2.906v.97z"/></svg>