<?xml version="1.0" encoding="UTF-8" standalone="no"?>
<svg width="14px" height="10px" viewBox="0 0 14 10" version="1.1" xmlns="http://www.w3.org/2000/svg" xmlns:xlink="http://www.w3.org/1999/xlink">
    <!-- Generator: Sketch 3.6.1 (26313) - http://www.bohemiancoding.com/sketch -->
    <title>_</title>
    <desc>Created with Sketch.</desc>
    <defs></defs>
    <g id="Page-1" stroke="none" stroke-width="1"  fill-rule="evenodd">
        <path d="M6.5,0.259 L3.26,0.259 L1.1,3.859 C0.056,5.623 0.02,6.091 0.02,6.847 C0.0272938078,7.69141427 0.375580723,8.49703132 0.985730776,9.08081687 C1.59588083,9.66460241 2.41608687,9.97698787 3.26,9.947 C4.09589572,9.97255645 4.90754935,9.66413909 5.5155405,9.08992523 C6.12353164,8.51571138 6.47778825,7.72299128 6.5,6.887 C6.49418466,5.70338156 5.7447392,4.65127542 4.628,4.259 L6.5,0.259 Z M13.951,0.259 L10.711,0.259 L8.551,3.859 C7.507,5.623 7.471,6.091 7.471,6.847 C7.55177743,8.57071032 8.9678437,9.92950651 10.6934191,9.93909452 C12.4189944,9.94868253 13.8500729,8.60570625 13.95,6.883 C13.9441847,5.69938156 13.1947392,4.64727542 12.078,4.255 L13.951,0.259 Z" id="_" fill="#454748"></path>
    </g>
</svg>