<?xml version="1.0" encoding="UTF-8" standalone="no"?>
<svg width="14px" height="10px" viewBox="0 0 14 10" version="1.1" xmlns="http://www.w3.org/2000/svg" xmlns:xlink="http://www.w3.org/1999/xlink">
    <!-- Generator: Sketch 3.6.1 (26313) - http://www.bohemiancoding.com/sketch -->
    <title>_</title>
    <desc>Created with Sketch.</desc>
    <defs></defs>
    <g id="Page-1" stroke="none" stroke-width="1" fill="none" fill-rule="evenodd">
        <path d="M6.48,0 L3.24,0 L1.08,3.6 C0.036,5.364 0,5.832 0,6.588 C0.00729380784,7.43241427 0.355580723,8.23803132 0.965730776,8.82181687 C1.57588083,9.40560241 2.39608687,9.71798787 3.24,9.688 C4.07589572,9.71355645 4.88754935,9.40513909 5.4955405,8.83092523 C6.10353164,8.25671138 6.45778825,7.46399128 6.48,6.628 C6.47418466,5.44438156 5.7247392,4.39227542 4.608,4 L6.48,0 Z M13.931,0 L10.691,0 L8.531,3.6 C7.487,5.364 7.451,5.832 7.451,6.588 C7.53177743,8.31171032 8.9478437,9.67050651 10.6734191,9.68009452 C12.3989944,9.68968253 13.8300729,8.34670625 13.93,6.624 C13.9241847,5.44038156 13.1747392,4.38827542 12.058,3.996 L13.931,0 Z" id="_" fill="#454748" transform="translate(6.965500, 4.844988) scale(-1, -1) translate(-6.965500, -4.844988) "></path>
    </g>
</svg>